<?xml version="1.0" standalone="no"?>
<!DOCTYPE svg PUBLIC "-//W3C//DTD SVG 20010904//EN"
 "http://www.w3.org/TR/2001/REC-SVG-20010904/DTD/svg10.dtd">
<svg version="1.0" xmlns="http://www.w3.org/2000/svg"
 width="512.000000pt" height="512.000000pt" viewBox="0 0 512.000000 512.000000"
 preserveAspectRatio="xMidYMid meet">
<metadata>
Created by potrace 1.14, written by Peter Selinger 2001-2017
</metadata>
<g transform="translate(0.000000,512.000000) scale(0.100000,-0.100000)"
fill="#000000" stroke="none">
<path d="M3555 4978 c-15 -79 -29 -152 -31 -163 -1 -11 -14 -74 -27 -140 -14
-66 -27 -133 -30 -150 -6 -36 -65 -339 -73 -374 -5 -26 -12 -24 -19 5 -4 18
-150 475 -160 501 -3 8 -53 -13 -152 -63 -162 -83 -174 -91 -156 -102 14 -9
86 -68 120 -99 13 -11 42 -36 65 -55 23 -18 54 -44 69 -58 28 -25 92 -80 139
-119 l25 -20 -25 4 c-49 9 -177 17 -266 17 -94 0 -160 -6 -301 -27 -226 -33
-591 -191 -785 -339 -15 -12 -48 -37 -73 -55 -95 -70 -206 -180 -334 -330 -12
-13 -21 -27 -21 -32 0 -4 -24 -1 -52 7 -29 7 -55 14 -56 14 -2 0 -1 -33 3 -74
7 -72 -6 -136 -27 -136 -5 0 -8 -6 -8 -14 0 -7 -7 -19 -15 -26 -8 -7 -12 -16
-9 -21 3 -5 0 -9 -7 -9 -7 0 -9 -3 -6 -6 4 -4 -2 -19 -12 -33 -10 -14 -26 -44
-36 -66 -9 -22 -22 -51 -28 -65 -5 -14 -11 -27 -12 -30 0 -3 -6 -14 -12 -25
-6 -11 -12 -24 -13 -30 -2 -5 -4 -14 -6 -20 -2 -5 -13 -39 -24 -75 -12 -36
-23 -73 -26 -82 -2 -10 -6 -27 -9 -38 -3 -11 -7 -29 -10 -40 -24 -95 -44 -225
-51 -325 -9 -137 -3 -364 11 -435 3 -14 8 -43 11 -65 31 -242 164 -587 306
-799 29 -44 58 -87 63 -95 6 -9 12 -18 15 -21 3 -3 23 -27 45 -55 50 -63 98
-116 154 -169 24 -22 67 -63 96 -91 58 -56 114 -105 169 -150 92 -74 90 -72
87 -113 -2 -30 4 -46 24 -70 26 -31 85 -72 108 -76 6 -1 17 -4 22 -8 6 -3 39
-14 75 -23 107 -28 149 -36 275 -50 28 -3 68 -10 90 -15 22 -5 54 -11 70 -14
17 -3 41 -8 55 -11 99 -20 351 -27 475 -13 126 14 353 71 450 113 17 7 64 27
105 45 86 37 280 144 309 172 11 10 23 18 26 18 12 0 122 75 175 119 88 74
190 181 240 251 14 19 35 46 48 60 12 13 22 30 22 36 0 6 9 19 20 29 11 10 20
24 20 31 0 7 4 14 8 16 10 4 82 125 82 139 0 5 5 9 11 9 5 0 7 5 4 10 -3 5 -2
10 2 10 7 0 85 150 89 170 0 3 8 21 17 40 15 32 15 36 -1 48 -9 7 -28 16 -40
19 -28 7 -27 18 18 148 11 32 22 68 25 80 2 11 6 30 9 43 18 69 34 153 42 209
20 147 26 430 11 514 -4 19 -9 61 -13 94 -23 223 -126 529 -255 755 -8 14 -16
27 -19 30 -3 3 -16 25 -30 50 -13 25 -32 54 -42 64 -10 11 -18 23 -18 27 0 4
-6 14 -13 21 -7 7 -28 33 -47 58 -89 114 -219 244 -320 320 -18 14 -38 30 -44
35 -6 6 -33 25 -61 43 -27 17 -59 39 -70 47 -10 8 -25 15 -32 15 -7 0 -13 4
-13 9 0 5 -10 13 -22 17 -13 3 -36 16 -53 28 -16 11 -30 20 -30 18 0 -2 -27 9
-60 25 -33 15 -62 28 -65 28 -3 1 -21 8 -40 16 -19 8 -55 21 -80 29 -25 7 -46
14 -47 15 -2 1 9 26 23 56 15 30 56 117 91 193 35 77 85 183 110 235 98 208
164 353 161 356 -2 2 -87 46 -189 99 l-187 96 -27 -142z"/>
<path d="M675 1443 c-22 -25 -51 -58 -65 -73 -85 -93 -84 -92 -65 -106 10 -8
30 -24 44 -36 15 -13 44 -36 66 -53 22 -16 48 -36 58 -45 48 -39 57 -46 77
-60 12 -8 33 -26 47 -38 l26 -24 -54 7 c-30 4 -65 9 -79 10 -14 1 -52 6 -85 9
-33 4 -80 9 -104 11 -24 3 -61 7 -82 10 -60 8 -109 14 -169 20 -30 3 -72 7
-92 10 -30 4 -39 1 -48 -15 -6 -11 -8 -20 -6 -20 3 0 1 -12 -5 -27 -20 -52
-27 -204 -16 -333 7 -92 30 -202 42 -206 27 -11 568 161 663 210 42 21 47 20
22 -6 -11 -12 -20 -27 -20 -34 0 -7 -6 -19 -13 -26 -7 -7 -22 -29 -33 -48 -10
-19 -22 -37 -25 -40 -3 -3 -14 -20 -23 -37 -16 -32 -16 -34 19 -100 66 -126
118 -200 162 -228 21 -14 25 -14 38 -1 8 8 15 17 15 21 0 3 20 36 45 74 25 38
45 73 45 80 0 6 3 11 8 11 4 0 16 17 27 38 11 20 26 43 32 50 7 7 13 19 13 27
0 7 4 15 8 17 5 2 28 37 52 78 25 41 47 77 50 80 7 7 29 42 37 60 4 8 9 17 13
20 3 3 18 26 32 51 l27 46 -46 69 c-25 38 -49 71 -52 74 -3 3 -10 13 -16 22
-46 78 -134 194 -164 216 -20 15 -49 39 -66 55 -16 15 -38 30 -47 33 -10 3
-18 9 -18 14 0 5 -12 16 -27 24 -16 8 -42 28 -60 43 -17 15 -44 37 -59 48 -15
11 -33 26 -40 33 -7 6 -17 12 -23 12 -6 0 -11 5 -11 10 0 19 -15 9 -55 -37z"/>
</g>
</svg>
